:version 1.10
:name ASF
:units
  mass 1
  length 1
  angle deg
:documentation
  ASF file generated by Kaydara
:root
  axis xyz
  order  tx ty tz rx ry rz
  position 0 0 0
  orientation 0 0 0
:bonedata
  begin
    id 1
    name lfemurDummy
    direction 0.61522 -0.761478 0.204097
    length 5.68318
    axis 0 -0 0 xyz
  end
  begin
    id 2
    name lfemur
    direction 0.34202 -0.939693 -5.84747e-008
    length 16.9147
    axis 0 -0 20 xyz
    dof rx ry rz
    limits( -inf , inf )
( -inf , inf )
( -inf , inf )

  end
  begin
    id 3
    name ltibia
    direction 0.34202 -0.939693 1.20839e-009
    length 18.0532
    axis 0 -0 20 xyz
    dof rz ry rx
    limits( -inf , inf )
( -inf , inf )
( -inf , inf )

  end
  begin
    id 4
    name lfoot
    direction 0.0841971 -0.23133 0.969225
    length 5.23822
    axis -90 7.62852e-016 20 xyz
    dof ry rx rz
    limits( -inf , inf )
( -inf , inf )
( -inf , inf )

  end
  begin
    id 5
    name ltoes
    direction 0 0 0
    length 0
    axis 0 0 0 xyz
    dof rz ry rx
    limits( -inf , inf )
( -inf , inf )
( -inf , inf )

  end
  begin
    id 6
    name rfemurDummy
    direction -0.625247 -0.75382 0.202044
    length 5.74091
    axis 0 -0 0 xyz
  end
  begin
    id 7
    name rfemur
    direction -0.34202 -0.939693 -1.47013e-008
    length 16.4922
    axis 0 -0 -20 xyz
    dof rx ry rz
    limits( -inf , inf )
( -inf , inf )
( -inf , inf )

  end
  begin
    id 8
    name rtibia
    direction -0.34202 -0.939693 -7.74345e-010
    length 18.2421
    axis 0 -0 -20 xyz
    dof rz ry rx
    limits( -inf , inf )
( -inf , inf )
( -inf , inf )

  end
  begin
    id 9
    name rfoot
    direction -0.124331 -0.341598 0.931586
    length 5.45787
    axis -90 -7.62852e-016 -20 xyz
    dof ry rx rz
    limits( -inf , inf )
( -inf , inf )
( -inf , inf )

  end
  begin
    id 10
    name rtoes
    direction 0 0 0
    length 0
    axis 0 0 0 xyz
    dof rz ry rx
    limits( -inf , inf )
( -inf , inf )
( -inf , inf )

  end
  begin
    id 11
    name lowerbackDummy
    direction 0 0 0
    length 0
    axis 0 -0 0 xyz
  end
  begin
    id 12
    name lowerback
    direction -0.0218484 0.994884 -0.0986304
    length 4.45607
    axis 0 -0 0 xyz
    dof rx ry rz
    limits( -inf , inf )
( -inf , inf )
( -inf , inf )

  end
  begin
    id 13
    name upperback
    direction -0.00973057 0.999717 -0.0217111
    length 4.47449
    axis 0 -0 0 xyz
    dof rx ry rz
    limits( -inf , inf )
( -inf , inf )
( -inf , inf )

  end
  begin
    id 14
    name thorax
    direction -0.000928171 0.999699 0.0245198
    length 4.50973
    axis 0 -0 0 xyz
    dof rx ry rz
    limits( -inf , inf )
( -inf , inf )
( -inf , inf )

  end
  begin
    id 15
    name rclavicle
    direction -0.9009 0.425937 -0.0834055
    length 7.28587
    axis 0 -0 0 xyz
    dof rx ry rz
    limits( -inf , inf )
( -inf , inf )
( -inf , inf )

  end
  begin
    id 16
    name rhumerus
    direction -1 -2.23604e-007 -1.42637e-007
    length 13.5704
    axis 180 30 90 xyz
    dof rx ry rz
    limits( -inf , inf )
( -inf , inf )
( -inf , inf )

  end
  begin
    id 17
    name rradius
    direction -1 5.68281e-008 -4.4952e-007
    length 8.06782
    axis 180 30 90 xyz
    dof rz ry rx
    limits( -inf , inf )
( -inf , inf )
( -inf , inf )

  end
  begin
    id 18
    name rwrist
    direction -1 1.51393e-007 1.38143e-007
    length 4.03391
    axis -90 -90 0 xyz
    dof rz rx ry
    limits( -inf , inf )
( -inf , inf )
( -inf , inf )

  end
  begin
    id 19
    name rthumb
    direction 0 0 0
    length 0
    axis 0 0 0 xyz
    dof ry rx rz
    limits( -inf , inf )
( -inf , inf )
( -inf , inf )

  end
  begin
    id 20
    name rhand
    direction -1 -3.34077e-007 -5.59631e-007
    length 1.29744
    axis -90 -90 0 xyz
    dof ry rx rz
    limits( -inf , inf )
( -inf , inf )
( -inf , inf )

  end
  begin
    id 21
    name rfingers
    direction 0 0 0
    length 0
    axis 0 0 0 xyz
    dof rz ry rx
    limits( -inf , inf )
( -inf , inf )
( -inf , inf )

  end
  begin
    id 22
    name lclavicle
    direction 0.940017 0.332249 -0.0773232
    length 8.29589
    axis 0 -0 0 xyz
    dof rx ry rz
    limits( -inf , inf )
( -inf , inf )
( -inf , inf )

  end
  begin
    id 23
    name lhumerus
    direction 1 7.41158e-008 -1.44768e-008
    length 12.0042
    axis 180 -30 -90 xyz
    dof rx ry rz
    limits( -inf , inf )
( -inf , inf )
( -inf , inf )

  end
  begin
    id 24
    name lradius
    direction 1 -1.32972e-007 3.10821e-007
    length 8.1902
    axis 180 -30 -90 xyz
    dof rz ry rx
    limits( -inf , inf )
( -inf , inf )
( -inf , inf )

  end
  begin
    id 25
    name lwrist
    direction 1 3.08957e-007 4.01394e-007
    length 4.09509
    axis -90 90 0 xyz
    dof rz rx ry
    limits( -inf , inf )
( -inf , inf )
( -inf , inf )

  end
  begin
    id 26
    name lthumb
    direction 0 0 0
    length 0
    axis 0 0 0 xyz
    dof ry rx rz
    limits( -inf , inf )
( -inf , inf )
( -inf , inf )

  end
  begin
    id 27
    name lhand
    direction 1 -1.64125e-007 -6.99514e-007
    length 1.37229
    axis -90 90 0 xyz
    dof ry rx rz
    limits( -inf , inf )
( -inf , inf )
( -inf , inf )

  end
  begin
    id 28
    name lfingers
    direction 0 0 0
    length 0
    axis 0 0 0 xyz
    dof rz ry rx
    limits( -inf , inf )
( -inf , inf )
( -inf , inf )

  end
  begin
    id 29
    name lowerneck
    direction -0.030798 0.998024 0.0547665
    length 3.93918
    axis 0 -0 0 xyz
    dof rx ry rz
    limits( -inf , inf )
( -inf , inf )
( -inf , inf )

  end
  begin
    id 30
    name upperneck
    direction 0.0531588 0.996611 -0.0627736
    length 3.95491
    axis 0 -0 0 xyz
    dof rx ry rz
    limits( -inf , inf )
( -inf , inf )
( -inf , inf )

  end
  begin
    id 31
    name head
    direction 0 0 0
    length 0
    axis 0 0 0 xyz
    dof rx ry rz
    limits( -inf , inf )
( -inf , inf )
( -inf , inf )

  end
:hierarchy
  begin
    root lfemurDummy rfemurDummy lowerbackDummy
    lfemurDummy lfemur
    lfemur ltibia
    ltibia lfoot
    lfoot ltoes
    rfemurDummy rfemur
    rfemur rtibia
    rtibia rfoot
    rfoot rtoes
    lowerbackDummy lowerback
    lowerback upperback
    upperback thorax
    thorax rclavicle lclavicle lowerneck
    rclavicle rhumerus
    rhumerus rradius
    rradius rwrist
    rwrist rthumb rhand
    rhand rfingers
    lclavicle lhumerus
    lhumerus lradius
    lradius lwrist
    lwrist lthumb lhand
    lhand lfingers
    lowerneck upperneck
    upperneck head
  end

:SAMPLES-PER-SECOND 30
:FULLY-SPECIFIED
:DEGREES
86
root  -7.926088618 38.90377856 9.50986682 19.73699951 -48.1519928 -20.32702637
lowerback  8.692669868 7.833710194 -6.191150188
upperback  4.73071003 9.656499863 -4.402840137
thorax  -0.1247979999 4.673339844 -2.011140108
lowerneck  7.331359863 0.9902639985 -8.265890121
upperneck  10.80039978 -0.6084849834 18.88150024
head  1.90158999 -0.3641400039 7.242139816
lclavicle  0 -9.442270133e-015 7.951389973e-016
lhumerus  -7.32144022 -38.36920166 78.66899872
lradius  2.39303565e-031 -2.596579368e-031 132.6640015
lwrist  0 -0 9.020859718
lhand  -1.496451383e-031 -27.76390076 20.11240005
lfingers  90 7.125020027 -90
lthumb  89.89689403 5.08795885 91.16245106
rclavicle  0 -9.442270133e-015 7.951389973e-016
rhumerus  2.371320009 10.46710014 -71.75700378
rradius  -1.762555825e-032 3.526723409e-031 92.86109924
rwrist  1.412450015e-030 -3.531125038e-031 6.737140179
rhand  -7.920061211e-032 -33.2840004 9.303460121
rfingers  -90 -7.125020027 -90
rthumb  -92.93752616 -24.25625642 -97.11982154
rfemur  4.520070076 14.52299976 23.65460014
rtibia  -0 0 36.60549927
rfoot  -1.25159297e-031 45.14410019 7.092380047
rtoes  5.373923086 19.29304026 -105.8922705
lfemur  -43.8594017 0.7195140123 1.338850021
ltibia  -0 0 46.44530106
lfoot  4.414812285e-032 -1.160779953 -0.4921599925
ltoes  -4.250644065 -19.5611806 -102.515957
87
root  -7.874866546 39.15577686 9.481022302 20.18200684 -48.51199341 -20.69299316
lowerback  8.373920441 7.451350212 -6.195700169
upperback  4.730340004 9.190449715 -4.349629879
thorax  0.04209129885 4.43983984 -1.862200022
lowerneck  7.409759998 1.296769977 -8.231060028
upperneck  11.1406002 -0.2428050041 18.76180077
head  1.936490059 -0.1829220057 7.197790146
lclavicle  0 -9.442270133e-015 7.951389973e-016
lhumerus  -7.251029968 -37.72019958 78.11810303
lradius  2.409573295e-031 -2.581240123e-031 133.0299988
lwrist  -7.062250077e-031 1.765562519e-031 9.707309723
lhand  -1.496451383e-031 -27.76390076 20.11240005
lfingers  90 7.125020027 -90
lthumb  89.89689403 5.08795885 91.16245106
rclavicle  0 -9.442270133e-015 7.951389973e-016
rhumerus  -1.202600002 11.4442997 -73.42669678
rradius  -3.027722464e-032 3.518120664e-031 94.91880035
rwrist  7.062250077e-031 -0 5.470930099
rhand  -7.920061211e-032 -33.2840004 9.303460121
rfingers  -90 -7.125020027 -90
rthumb  -92.93752616 -24.25625642 -97.11982154
rfemur  3.886940002 15.09679985 23.73810005
rtibia  -0 0 36.49670029
rfoot  -1.252872697e-031 45.20230103 6.594029903
rtoes  5.373923086 19.29304026 -105.8922705
lfemur  -42.87720108 0.930013001 1.551789999
ltibia  -0 0 44.73659897
lfoot  4.689886664e-032 -0.3945960104 -0.162955001
ltoes  -4.250644065 -19.5611806 -102.515957
88
root  -7.831222054 39.42088931 9.437511474 20.86297607 -49.01499939 -21.31097412
lowerback  8.007590294 7.163479805 -6.113949776
upperback  4.706140041 8.857740402 -4.314310074
thorax  0.2256470025 4.274590015 -1.789399981
lowerneck  7.554580212 1.542250037 -8.208620071
upperneck  11.3217001 0.05178109929 18.74300003
head  1.923099995 -0.04405559972 7.186620235
lclavicle  0 -9.442270133e-015 7.951389973e-016
lhumerus  -7.13117981 -37.08319855 77.48750305
lradius  2.426818807e-031 -2.565033044e-031 133.4140015
lwrist  -7.062250077e-031 -0 10.20650005
lhand  -1.496451383e-031 -27.76390076 20.11240005
lfingers  90 7.125020027 -90
lthumb  89.89689403 5.08795885 91.16245106
rclavicle  0 -9.442270133e-015 7.951389973e-016
rhumerus  -4.800739765 11.98770046 -75.3391037
rradius  -4.270506496e-032 3.505206382e-031 96.94629669
rwrist  7.062250077e-031 -3.531125038e-031 4.955289841
rhand  -7.920061211e-032 -33.2840004 9.303460121
rfingers  -90 -7.125020027 -90
rthumb  -92.93752616 -24.25625642 -97.11982154
rfemur  3.343470097 15.79850006 23.95439911
rtibia  -0 0 36.19440079
rfoot  -0 44.98709869 6.691490173
rtoes  5.373923086 19.29304026 -105.8922705
lfemur  -41.79579926 1.332870007 1.901059985
ltibia  -0 0 42.90269852
lfoot  4.689968742e-032 0.5202000141 0.2673900127
ltoes  -4.250644065 -19.5611806 -102.515957
89
root  -7.773710987 39.69266696 9.41082211 21.30401611 -49.33500671 -21.74902344
lowerback  7.809160233 6.819900036 -5.584400177
upperback  4.730679989 8.463629723 -4.484429836
thorax  0.463398993 4.089620113 -2.178719997
lowerneck  7.683100224 1.764449954 -8.186189651
upperneck  11.46469975 0.3107840121 18.8635006
head  1.903669953 0.07868690044 7.220610142
lclavicle  0 -9.442270133e-015 7.951389973e-016
lhumerus  -6.92979002 -36.57889938 76.69629669
lradius  2.442976355e-031 -2.549649107e-031 133.776001
lwrist  -1.412450015e-030 -1.765562519e-031 10.34370041
lhand  -1.496451383e-031 -27.76390076 20.11240005
lfingers  90 7.125020027 -90
lthumb  89.89689403 5.08795885 91.16245106
rclavicle  0 -9.442270133e-015 7.951389973e-016
rhumerus  -8.298279762 11.92930031 -77.51280212
rradius  -5.44426399e-032 3.48890297e-031 98.86920166
rwrist  1.059337512e-030 -0 5.139659882
rhand  -7.920061211e-032 -33.2840004 9.303460121
rfingers  -90 -7.125020027 -90
rthumb  -92.93752616 -24.25625642 -97.11982154
rfemur  3.119430065 16.23430061 24.06749916
rtibia  -0 0 35.71279907
rfoot  -6.201407024e-032 44.62179947 6.389180183
rtoes  5.373923086 19.29304026 -105.8922705
lfemur  -40.72060013 1.383039951 2.179100037
ltibia  -0 0 41.03990173
lfoot  4.415701415e-032 1.63380003 0.9531419873
ltoes  -4.250644065 -19.5611806 -102.515957
